<svg xmlns="http://www.w3.org/2000/svg" xmlns:xlink="http://www.w3.org/1999/xlink" version="1.1" x="0px" y="0px" viewBox="0 0 90 100" enable-background="new 0 0 90 100" xml:space="preserve"><g><path d="M76.275,20h-53.55C20.115,20,18,21.918,18,24.477v60.735C18,87.771,20.115,90,22.725,90h53.55   C78.884,90,81,87.771,81,85.212V24.477C81,21.918,78.884,20,76.275,20z M30,30.891C30,30.475,29.785,30,30.075,30h38.85   C69.215,30,69,30.475,69,30.891v10.526C69,41.832,69.215,43,68.925,43h-38.85C29.785,43,30,41.832,30,41.417V30.891z    M39.516,79.583l-0.094,0.09c-0.594,0.573-1.264,0.851-1.788,0.329l-3.708-3.691l-2.679,2.586   c-0.587,0.566-1.557,0.533-2.167-0.076c-0.61-0.606-0.629-1.559-0.043-2.125l2.679-2.586l-2.735-2.724   c-0.523-0.521-0.466-1.407,0.128-1.981l0.094-0.09c0.594-0.573,1.5-0.615,2.023-0.094l2.735,2.725l2.866-2.768   c0.587-0.566,1.557-0.531,2.167,0.075c0.61,0.606,0.63,1.56,0.043,2.125l-2.866,2.767l3.708,3.692   C40.403,78.357,40.11,79.01,39.516,79.583z M39.872,56H36v5.055C36,61.787,35.174,62,34.341,62H34.21   C33.376,62,33,61.787,33,61.055V56h-4.06c-0.823,0-1.49-0.648-1.49-1.5s0.667-1.5,1.49-1.5H33v-4.038   C33,48.232,33.376,48,34.209,48h0.131c0.834,0,1.66,0.232,1.66,0.962V53h3.872c0.823,0,1.49,0.648,1.49,1.5S40.695,56,39.872,56z    M62.23,78.874c-1.004,0-1.82-0.799-1.82-1.784c0-0.986,0.814-1.785,1.82-1.785s1.821,0.799,1.821,1.785   C64.052,78.075,63.236,78.874,62.23,78.874z M68.223,75H57.29c-0.823,0-1.49-1.148-1.49-2s0.667-2,1.49-2h10.933   c0.822,0,1.489,1.148,1.489,2S69.045,75,68.223,75z M60.411,68.854c0-0.985,0.815-1.785,1.821-1.785c1.004,0,1.82,0.8,1.82,1.785   s-0.814,1.785-1.82,1.785S60.411,69.839,60.411,68.854z M68.223,57H57.29c-0.823,0-1.49-0.648-1.49-1.5s0.667-1.5,1.49-1.5h10.933   c0.822,0,1.489,0.648,1.489,1.5S69.045,57,68.223,57z"></path></g></svg>