<?xml version="1.0" standalone="no"?>
<!DOCTYPE svg PUBLIC "-//W3C//DTD SVG 20010904//EN"
 "http://www.w3.org/TR/2001/REC-SVG-20010904/DTD/svg10.dtd">
<svg version="1.0" xmlns="http://www.w3.org/2000/svg"
 width="128.000000pt" height="128.000000pt" viewBox="0 0 128.000000 128.000000"
 preserveAspectRatio="xMidYMid meet">
<metadata>
Created by potrace 1.16, written by Peter Selinger 2001-2019
</metadata>
<g transform="translate(0.000000,128.000000) scale(0.100000,-0.100000)"
fill="#fffff" stroke="none">
<path d="M418 1113 c-9 -2 -23 -15 -32 -28 -13 -20 -14 -39 -4 -142 13 -142 5
-387 -16 -503 -9 -46 -12 -88 -8 -92 13 -13 81 3 87 21 12 41 25 165 25 254 0
260 96 434 211 387 66 -28 68 -48 58 -455 -4 -161 -3 -173 19 -219 32 -70 68
-114 120 -147 68 -43 80 -35 30 20 -83 92 -96 191 -74 566 10 173 2 218 -47
271 -35 39 -86 52 -153 40 -42 -8 -125 -81 -144 -126 -7 -17 -16 -30 -21 -30
-4 0 -10 41 -11 92 -3 90 -7 100 -40 91z"/>
</g>
</svg>
