<?xml version="1.0" standalone="no"?>
<!DOCTYPE svg PUBLIC "-//W3C//DTD SVG 20010904//EN"
 "http://www.w3.org/TR/2001/REC-SVG-20010904/DTD/svg10.dtd">
<svg version="1.0" xmlns="http://www.w3.org/2000/svg"
 width="1280.000000pt" height="1280.000000pt" viewBox="0 0 1280.000000 1280.000000"
 preserveAspectRatio="xMidYMid meet">
<g transform="translate(0.000000,1280.000000) scale(0.100000,-0.100000)"
fill="#000000" stroke="none">
<path d="M4495 10351 c-10 -18 -655 -1881 -655 -1894 0 -8 8 -21 18 -30 16
-14 44 -17 185 -17 l167 0 81 123 c160 239 220 305 335 365 87 45 193 74 339
93 62 8 474 13 1341 16 1035 4 1252 2 1261 -9 8 -10 -248 -720 -1023 -2838
-1143 -3124 -1109 -3029 -1102 -3035 9 -9 833 -195 851 -193 16 2 266 689
1344 3688 728 2027 1327 3697 1330 3713 l5 27 -2235 0 c-1395 0 -2238 -4
-2242 -9z"/>
</g>
</svg>
