<?xml version="1.0" standalone="no"?>
<!DOCTYPE svg PUBLIC "-//W3C//DTD SVG 20010904//EN"
 "http://www.w3.org/TR/2001/REC-SVG-20010904/DTD/svg10.dtd">
<svg version="1.0" xmlns="http://www.w3.org/2000/svg"
 width="1280.000000pt" height="1280.000000pt" viewBox="0 0 1280.000000 1280.000000"
 preserveAspectRatio="xMidYMid meet">
<g transform="translate(0.000000,1280.000000) scale(0.100000,-0.100000)"
fill="#000000" stroke="none">
<path d="M7200 12789 c-321 -37 -590 -160 -734 -335 -56 -68 -108 -172 -131
-259 -16 -64 -38 -282 -29 -297 3 -4 23 -8 45 -8 36 0 40 -2 37 -22 l-3 -23
296 -3 296 -2 6 82 c15 208 86 307 263 368 161 56 417 26 497 -58 61 -64 89
-189 67 -297 -43 -209 -203 -309 -515 -324 l-130 -6 -3 -177 -2 -178 22 0 c45
0 70 -12 65 -30 -4 -15 10 -18 137 -23 292 -14 445 -82 511 -229 38 -84 40
-203 6 -291 -28 -72 -114 -163 -190 -201 -216 -110 -569 -75 -672 67 -28 39
-69 150 -69 188 0 12 -7 19 -19 19 -21 0 -31 19 -31 56 l0 24 -330 0 c-279 0
-330 -2 -330 -14 0 -92 42 -260 87 -350 58 -117 199 -274 318 -356 118 -81
295 -148 481 -181 143 -25 436 -31 579 -10 492 70 808 301 901 656 22 86 25
275 5 355 -23 96 -75 190 -150 271 -85 92 -149 143 -265 207 l-89 50 34 17
c68 35 178 118 231 173 104 110 142 206 142 367 0 181 -48 301 -174 438 -155
166 -322 257 -567 308 -179 37 -413 48 -593 28z"/>
</g>
</svg>
