<?xml version="1.0" standalone="no"?>
<!DOCTYPE svg PUBLIC "-//W3C//DTD SVG 20010904//EN"
 "http://www.w3.org/TR/2001/REC-SVG-20010904/DTD/svg10.dtd">
<svg version="1.0" xmlns="http://www.w3.org/2000/svg"
 width="180.000000pt" height="180.000000pt" viewBox="0 0 180.000000 180.000000"
 preserveAspectRatio="xMidYMid meet">

<g transform="translate(0.000000,180.000000) scale(0.100000,-0.100000)"
fill="#1194f4" stroke="none">
<path d="M0 900 l0 -900 900 0 900 0 0 900 0 900 -900 0 -900 0 0 -900z m1020
317 l130 -107 0 -218 0 -218 -131 -108 c-72 -59 -136 -106 -142 -103 -7 3 -67
50 -135 106 l-122 101 0 223 0 222 128 107 c70 58 130 106 134 105 4 -1 66
-50 138 -110z"/>
<path d="M846 1158 c-18 -25 -21 -100 -6 -129 13 -24 65 -26 74 -3 11 28 7 35
-12 25 -26 -14 -42 4 -42 45 0 36 14 50 44 45 14 -2 17 2 12 14 -3 9 -6 19 -6
21 0 15 -52 0 -64 -18z"/>
<path d="M670 891 l0 -169 43 -37 42 -36 5 95 5 95 53 -45 c30 -24 59 -44 64
-44 6 0 35 20 64 45 28 25 55 45 58 45 3 0 7 -42 8 -94 l3 -94 38 33 37 33 -2
171 -3 171 -101 -84 -101 -84 -103 84 c-56 46 -104 84 -106 84 -2 0 -4 -76 -4
-169z"/>
</g>
</svg>
